<?xml version="1.0" standalone="no"?>
<!DOCTYPE svg PUBLIC "-//W3C//DTD SVG 20010904//EN"
 "http://www.w3.org/TR/2001/REC-SVG-20010904/DTD/svg10.dtd">
<svg version="1.0" xmlns="http://www.w3.org/2000/svg"
 width="912.000000pt" height="912.000000pt" viewBox="0 0 912.000000 912.000000"
 preserveAspectRatio="xMidYMid meet">
<metadata>
Created by potrace 1.11, written by Peter Selinger 2001-2013
</metadata>
<g transform="translate(0.000000,912.000000) scale(0.100000,-0.100000)"
fill="#000000" stroke="none">
<path d="M2142 7128 l3 -543 1728 -3 c950 -1 1727 -4 1727 -7 0 -3 -777 -927
-1727 -2053 l-1728 -2047 3 -240 c1 -132 5 -363 8 -513 l7 -272 2408 0 2409 0
-2 543 -3 542 -1714 5 -1714 5 1706 2050 1705 2050 6 310 c3 170 7 401 9 513
l3 202 -2418 0 -2418 0 2 -542z"/>
</g>
</svg>
